<?xml version="1.0" encoding="UTF-8"?>
<svg width="79px" height="32px" viewBox="0 0 79 32" version="1.1" xmlns="http://www.w3.org/2000/svg" xmlns:xlink="http://www.w3.org/1999/xlink">
    <!-- Generator: Sketch 54.1 (76490) - https://sketchapp.com -->
    <title>Group 3</title>
    <desc>Created with Sketch.</desc>
    <g id="Page-1" stroke="none" stroke-width="1" fill="none" fill-rule="evenodd">
        <g id="Virtus-3---Final" transform="translate(-26.000000, -17.000000)">
            <g id="Rev-Slider">
                <g id="Slider">
                    <g id="Group-3" transform="translate(26.000000, 17.000000)">
                        <path d="M8.66848416,19.9806034 L11.4972602,19.9806034 L6.94335938,30.8965517 L4.62890625,30.8965517 L0.117865668,19.9806034 L2.93592665,19.9806034 L5.79684787,27.8362069 L8.66848416,19.9806034 Z M15.1185221,18.0409483 C14.6756307,18.0409483 14.2970357,17.8829039 13.9827257,17.5668103 C13.6684157,17.2507168 13.511263,16.8735654 13.511263,16.4353448 C13.511263,15.9899403 13.6684157,15.6109929 13.9827257,15.2984914 C14.2970357,14.9859898 14.6756307,14.8297414 15.1185221,14.8297414 C15.5542701,14.8297414 15.9292935,14.9859898 16.2436035,15.2984914 C16.5579135,15.6109929 16.7150662,15.9899403 16.7150662,16.4353448 C16.7150662,16.8735654 16.5561277,17.2507168 16.238246,17.5668103 C15.9203643,17.8829039 15.5471267,18.0409483 15.1185221,18.0409483 Z M13.7469944,30.8965517 L13.7469944,19.9806034 L16.4364746,19.9806034 L16.4364746,30.8965517 L13.7469944,30.8965517 Z M22.8329373,21.7693966 C23.1115303,21.2377847 23.5776308,20.786999 24.2312527,20.4170259 C24.8848747,20.0470527 25.5902758,19.858477 26.3474772,19.8512931 L26.3474772,22.2866379 C25.1831015,22.2866379 24.3259052,22.5219086 23.7758626,22.9924569 C23.2258201,23.4630052 22.950803,24.2693908 22.950803,25.4116379 L22.950803,30.8965517 L20.2613227,30.8965517 L20.2613227,19.9806034 L22.8329373,19.9806034 L22.8329373,21.7693966 Z M33.2046875,30.8965517 C32.1974668,30.8965517 31.4152752,30.6109942 30.8580892,30.0398707 C30.3009033,29.4687471 30.0223145,28.6659534 30.0223145,27.6314655 L30.0223145,22.0603448 L27.8685873,22.0603448 L27.8685873,19.9806034 L28.5972114,19.9806034 C29.1901144,19.9806034 29.6222842,19.8369267 29.8937337,19.549569 C30.1651833,19.2622112 30.3009061,18.7557508 30.3009061,18.0301724 L30.3009061,16.424569 L32.7332248,16.424569 L32.7332248,19.9806034 L35.047678,19.9806034 L35.047678,22.0603448 L32.7332248,22.0603448 L32.7332248,27.3405172 C32.7332248,27.8362094 32.8510893,28.2079729 33.0868219,28.455819 C33.3225544,28.703665 33.6511463,28.8275862 34.0726074,28.8275862 L35.047678,28.8275862 L35.047678,30.8965517 L33.2046875,30.8965517 Z M45.0229709,19.9806034 L47.7017361,19.9806034 L47.7017361,30.8965517 L45.1622667,30.8965517 L45.0872613,29.549569 C44.7229474,30.052445 44.2497036,30.4385762 43.6675158,30.7079741 C43.0853279,30.977372 42.4299299,31.112069 41.7013021,31.112069 C40.4512054,31.112069 39.4815021,30.7834085 38.7921631,30.1260776 C38.1028241,29.4687467 37.7581597,28.536644 37.7581597,27.3297414 L37.7581597,19.9806034 L40.4369249,19.9806034 L40.4369249,26.7478448 C40.4369249,27.4877911 40.6315799,28.0355586 41.0208958,28.3911638 C41.4102116,28.746769 41.9120286,28.924569 42.5263618,28.924569 C43.2549896,28.924569 43.8514553,28.70187 44.3157769,28.2564655 C44.7800986,27.811061 45.0158275,27.1142289 45.0229709,26.1659483 L45.0229709,19.9806034 Z M55.2232802,31.112069 C53.9874703,31.112069 52.9588348,30.8534509 52.1373427,30.3362069 C51.3158506,29.8189629 50.8122478,29.0646601 50.6265191,28.0732759 L52.887397,27.4267241 C53.0302651,28.0229915 53.3052823,28.4665934 53.7124566,28.7575431 C54.119631,29.0484928 54.6232338,29.1939655 55.2232802,29.1939655 C55.7161755,29.1939655 56.1322728,29.0933918 56.4715848,28.8922414 C56.8108967,28.6910909 56.9769785,28.3642264 56.9698351,27.9116379 C56.9626917,27.6817517 56.9037594,27.4824003 56.7930366,27.3135776 C56.6823138,27.1447549 56.5019454,26.9992822 56.251926,26.8771552 C56.0019067,26.7550281 55.7661777,26.6562504 55.544732,26.580819 C55.3232863,26.5053876 55.0054094,26.4084058 54.5910916,26.2898707 C54.1767739,26.1713356 53.8446103,26.0689659 53.594591,25.9827586 C53.2874244,25.8821834 53.0177647,25.7816097 52.7856039,25.6810345 C52.5534431,25.5804593 52.3123566,25.4457623 52.0623373,25.2769397 C51.8123179,25.108117 51.6087338,24.9231332 51.4515788,24.7219828 C51.2944238,24.5208323 51.1640585,24.271194 51.0604791,23.9730603 C50.9568997,23.6749267 50.9051107,23.3462662 50.9051107,22.987069 C50.9051107,21.9310292 51.2872774,21.1318274 52.0516222,20.5894397 C52.815967,20.0470519 53.8053144,19.7758621 55.019694,19.7758621 C56.1269225,19.7758621 57.0555518,20.0111327 57.8056098,20.481681 C58.5556678,20.9522294 59.0235542,21.6760009 59.2092828,22.6530172 L57.119846,23.137931 C56.841253,22.117811 56.144781,21.6077586 55.0304091,21.6077586 C54.5589441,21.6077586 54.1624908,21.7047404 53.8410374,21.8987069 C53.5195839,22.0926734 53.3588596,22.3800268 53.3588596,22.7607759 C53.3588596,22.868535 53.3713604,22.9673128 53.3963623,23.0571121 C53.4213643,23.1469114 53.4677957,23.2313214 53.5356581,23.3103448 C53.6035205,23.3893682 53.6695961,23.4576147 53.7338868,23.5150862 C53.7981774,23.5725578 53.8910404,23.6318244 54.0124783,23.6928879 C54.1339163,23.7539515 54.2374942,23.8024423 54.3232151,23.8383621 C54.408936,23.8742818 54.5375155,23.9173848 54.7089573,23.9676724 C54.8803991,24.01796 55.014336,24.0556752 55.1107721,24.080819 C55.2072081,24.1059628 55.3554316,24.1436779 55.5554471,24.1939655 C55.7554625,24.2442531 55.9054719,24.2837642 56.0054796,24.3125 C56.4055106,24.4202592 56.7466033,24.5244248 57.0287679,24.625 C57.3109326,24.7255752 57.6234521,24.8692519 57.9663358,25.0560345 C58.3092194,25.242817 58.5842366,25.4493523 58.7913954,25.6756466 C58.9985543,25.9019408 59.175351,26.1946821 59.3217909,26.5538793 C59.4682308,26.9130765 59.5414497,27.3153713 59.5414497,27.7607759 C59.5414497,28.2349162 59.4646592,28.6623544 59.3110759,29.0431034 C59.1574926,29.4238525 58.9467652,29.7417372 58.6788873,29.9967672 C58.4110094,30.2517973 58.0913467,30.4637204 57.7198894,30.6325431 C57.3484321,30.8013658 56.9573363,30.923491 56.5465902,30.9989224 C56.1358442,31.0743538 55.6947452,31.112069 55.2232802,31.112069 Z" id="virtus" fill="#000000" fill-rule="nonzero"></path>
                        <g id="Group" transform="translate(59.250000, 0.000000)" fill="#4DAD4B">
                            <g id="Group-14">
                                <g id="Group-12">
                                    <path d="M19.0060912,7.77238449 C19.0066804,4.47785944 17.2881592,1.6002344 14.7214994,0 C15.5470996,1.38167203 16.0321186,2.99904858 16.0321186,4.73604423 C16.0321186,9.76643715 12.0364758,13.845065 7.1078438,13.845065 C5.40560042,13.845065 3.8228993,13.3493713 2.46875,12.5066243 C4.03694106,15.126666 6.85601696,16.8808038 10.0824056,16.8814053 C15.0104484,16.8814053 19.0060912,12.8027774 19.0060912,7.77238449 Z" id="Path-Copy-2" transform="translate(10.737421, 8.440703) scale(1, -1) translate(-10.737421, -8.440703) "></path>
                                    <path d="M9.36970021,13.6286824 C9.37003354,11.7982439 8.39785686,10.1994352 6.94588356,9.31034483 C7.41293004,10.0780019 7.68730787,10.9766165 7.68730787,11.9416914 C7.68730787,14.7365782 5.42695124,17.0026642 2.63879751,17.0026642 C1.67582926,17.0026642 0.780486695,16.7272568 0.0144371345,16.2590264 C0.901571276,17.7147219 2.49633771,18.689321 4.32152319,18.6896552 C7.10934358,18.6896552 9.36970021,16.4235691 9.36970021,13.6286824 Z" id="Path-Copy-3" opacity="0.700079055" transform="translate(4.692069, 14.000000) scale(1, -1) translate(-4.692069, -14.000000) "></path>
                                </g>
                            </g>
                        </g>
                    </g>
                </g>
            </g>
        </g>
    </g>
</svg>